<svg height="512pt" viewBox="-120 0 512 512" width="512pt" xmlns="http://www.w3.org/2000/svg"><path d="m205.984375 109.710938.003906-42.566407c0-32.867187-26.644531-59.511719-59.511719-59.511719-32.871093 0-59.515624 26.644532-59.515624 59.511719l-.003907 42.566407c0 32.867187 26.648438 59.511718 59.515625 59.511718 32.867188 0 59.511719-26.644531 59.511719-59.511718zm0 0" fill="#ffdc8d"/><path d="m109.5 111.648438v-44.496094c0-16.4375 6.660156-31.316406 17.433594-42.085938 8.246094-8.25 18.898437-14.089844 30.816406-16.367187-3.652344-.699219-7.414062-1.066407-11.269531-1.066407-16.433594 0-31.316407 6.660157-42.085938 17.433594-10.769531 10.769532-17.433593 25.648438-17.433593 42.085938v6.628906c-5.96875-1.5-12.550782.0625-17.21875 4.730469-7.066407 7.066406-7.066407 18.523437 0 25.589843 4.667968 4.667969 11.25 6.230469 17.21875 4.730469l-.003907.878907c0 32.871093 26.648438 59.519531 59.519531 59.519531 3.855469 0 7.621094-.367188 11.269532-1.066407-27.480469-5.261718-48.246094-27.496093-48.246094-56.515624zm0 0" fill="#e8c57e"/><path d="m205.984375 67.152344c-42.179687 8.105468-78.101563-17.058594-78.101563-17.058594-4.582031 12.867188-10.390624 20.054688-15.832031 24.023438-6.183593 4.511718-14.347656 4.703124-21.128906 1.15625-1.269531-.660157-2.601563-1.164063-3.964844-1.5v-6.621094c0-16.4375 6.660157-31.316406 17.429688-42.089844 10.773437-10.769531 25.652343-17.429688 42.089843-17.429688 32.859376 0 59.507813 26.644532 59.507813 59.519532zm0 0" fill="#5c5e70"/><path d="m109.507812 67.152344c0-16.4375 6.660157-31.316406 17.429688-42.085938 8.242188-8.242187 18.878906-14.074218 30.789062-16.359375-3.644531-.695312-7.398437-1.074219-11.246093-1.074219-16.4375 0-31.316407 6.660157-42.085938 17.433594-10.773437 10.769532-17.433593 25.648438-17.433593 42.085938v6.621094c1.363281.339843 2.695312.839843 3.964843 1.503906 5.886719 3.074218 12.808594 3.332031 18.578125.398437v-8.523437zm0 0" fill="#3b3d4c"/><path d="m75.203125 312.429688c0-41.226563 9.15625-82.921876 16.777344-110.476563 5.238281-18.949219 22.496093-32.0625 42.160156-32.0625 19.660156 0 36.917969 13.109375 42.160156 32.0625 7.617188 27.550781 16.773438 69.25 16.773438 110.476563" fill="#e3f4fc"/><path d="m134.132812 169.894531c-10.414062 0-19.558593 13.109375-22.335937 32.058594-4.027344 27.550781-8.878906 69.25-8.878906 110.472656h-27.714844c0-41.222656 9.152344-82.921875 16.773437-110.472656 5.234376-18.949219 22.496094-32.058594 42.15625-32.058594zm0 0" fill="#bdd9e5"/><path d="m176.875 489.226562-4.484375 15.144532h-22.742187l2.144531-24.980469c1.109375-12.894531 1.667969-25.8125 1.667969-38.730469 0-30.988281-3.191407-61.941406-9.550782-92.351562l-10.472656 38.578125c-5.003906 18.449219-11.179688 36.566406-18.480469 54.242187l-26.152343 63.242188h-25.179688l3.394531-13.976563c11.800781-48.433593 15.480469-98.480469 10.925781-148.125l-2.738281-29.84375c7.996094-1.605469 15.601563-2.867187 22.8125-3.851562 61.902344-8.453125 95.058594 3.851562 95.058594 3.851562l1.148437 15.757813c3.96875 54.289062-1.910156 108.847656-17.351562 161.042968zm0 0" fill="#f78e39"/><path d="m71.566406 504.371094h-7.941406l3.394531-13.976563c11.800781-48.433593 15.480469-98.480469 10.925781-148.125l-2.738281-29.84375c7.996094-1.605469 15.601563-2.867187 22.8125-3.851562l4.902344 3.851562s2.707031 129.058594-31.355469 191.945313zm0 0" fill="#e27727"/><path d="m181.570312 113.335938c4.210938 0 7.625-3.414063 7.625-7.628907v-10.023437c0-4.214844-3.414062-7.628906-7.625-7.628906-4.214843 0-7.628906 3.414062-7.628906 7.628906v10.023437c0 4.214844 3.414063 7.628907 7.628906 7.628907zm0 0"/><path d="m157.667969 105.707031v-10.023437c0-4.214844-3.414063-7.628906-7.628907-7.628906-4.210937 0-7.625 3.414062-7.625 7.628906v10.023437c0 4.214844 3.414063 7.628907 7.625 7.628907 4.214844 0 7.628907-3.414063 7.628907-7.628907zm0 0"/><path d="m271.886719 187.585938-13.394531-42.417969c-1.746094-5.527344-6.148438-9.644531-11.773438-11.019531s-11.433594.246093-15.527344 4.34375c-4.207031 4.207031-5.816406 10.371093-4.195312 16.097656l2.152344 7.617187c1.144531 4.054688 5.363281 6.410157 9.417968 5.265625 4.050782-1.148437 6.410156-5.363281 5.261719-9.417968l-2.152344-7.617188c-.117187-.410156 0-.855469.300781-1.160156.3125-.308594.6875-.414063 1.117188-.308594.429688.101562.714844.371094.847656.792969l13.398438 42.417969c.917968 2.914062.53125 6.078124-1.066406 8.683593-1.609376 2.628907-4.167969 4.351563-7.203126 4.859375-17.648437 2.9375-42.371093 5.621094-63.175781 2.59375-.730469-2.800781-1.46875-5.601562-2.242187-8.402344-2.871094-10.363281-8.761719-19.355468-17.074219-26.117187 10.21875-3.195313 19.585937-8.820313 27.375-16.613281 12.675781-12.6875 19.65625-29.546875 19.65625-47.476563 0 0 .011719-42.808593-.011719-43.113281-.75-36.730469-30.472656-66.476562-66.898437-66.59375-.078125 0-.148438 0-.226563 0-17.9375 0-34.789062 6.980469-47.480468 19.667969-12.347657 12.363281-19.292969 28.683593-19.640626 46.097656-6.300781.773437-12.183593 3.882813-16.476562 8.953125-8.007812 9.457031-8.003906 23.71875.003906 33.171875 4.398438 5.191406 10.457032 8.328125 16.925782 9.007813 2.511718 21.375 14.878906 39.753906 32.339843 50.339843-13.167969 6.265625-23.464843 18.007813-27.519531 32.679688-.292969 1.058593-.585938 2.144531-.882812 3.242187-21.492188 7.277344-42.90625 10.453125-57.277344 8.058594-3.882813-.644531-7.15625-2.851562-9.21875-6.214844-2.039063-3.332031-2.539063-7.378906-1.359375-11.109375l15.566406-49.289062c.382813-1.21875 1.335937-1.617188 1.867187-1.75.535157-.128907 1.5625-.210938 2.464844.691406.667969.667969.925782 1.644531.667969 2.554687l-2.503906 8.851563c-1.144531 4.054687 1.210937 8.269531 5.265625 9.414063 4.050781 1.148437 8.269531-1.210938 9.414062-5.265626l2.503906-8.851562c1.757813-6.21875.011719-12.921875-4.5625-17.492188-4.449218-4.453124-10.757812-6.21875-16.875-4.722656-6.113281 1.496094-10.898437 5.972656-12.792968 11.972656l-15.566406 49.292969c-2.507813 7.945313-1.449219 16.574219 2.902343 23.675781 4.34375 7.085938 11.53125 11.929688 19.722657 13.292969 3.960937.65625 8.304687.976563 12.941406.976563 12.578125 0 27.324218-2.371094 42.457031-6.730469-6.15625 26.238281-11.777344 59.148437-11.785156 91.867187 0 .007813.011719.507813.035156.738282l2.734375 29.84375c2.4375 26.460937 2.480469 53.328125.128906 79.863281-.371094 4.195313 2.730469 7.898437 6.925782 8.269531 4.183593.375 7.898437-2.730468 8.269531-6.925781 2.433593-27.441406 2.386719-55.234375-.132813-82.601563l-2.105468-22.953124c55.183593-10.015626 90.433593-3.433594 102.417968-.367188l.765625 10.484375c3.914063 53.5625-1.824219 106.828125-17.058593 158.324219l-2.867188 9.683594h-8.734375l1.4375-16.699219c1.125-13.089844 1.695313-26.34375 1.695313-39.382813 0-31.488281-3.265626-63.085937-9.710938-93.914062-.722656-3.449219-3.714844-5.957032-7.242188-6.0625-3.542968-.101563-6.664062 2.222656-7.585937 5.625l-10.476563 38.582031c-4.898437 18.054687-11.011718 36-18.167968 53.320313l-24.199219 58.53125h-10.371094l1.109375-4.542969c2.980469-12.246094 5.484375-24.773438 7.445313-37.234375.65625-4.160156-2.1875-8.066406-6.351563-8.71875-4.15625-.652344-8.066406 2.1875-8.71875 6.351562-1.894531 12.042969-4.316406 24.15625-7.199218 35.992188l-3.40625 13.976562c-.554688 2.273438-.035157 4.675782 1.410156 6.515625 1.449218 1.84375 3.660156 2.917969 6 2.917969h5.058594.03125 34.675781c4.214843 0 7.628906-3.414062 7.628906-7.628906 0-4.210938-3.414063-7.628906-7.628906-7.628906h-3.171875l21.789062-52.703126c7.40625-17.917968 13.726563-36.476562 18.792969-55.152343l1.375-5.066407c2.433594 18.851563 3.660156 37.863282 3.660156 56.839844 0 12.609375-.550781 25.417969-1.636719 38.078125l-2.148437 24.980469c-.183594 2.125.535156 4.234375 1.980469 5.808594 1.445312 1.574218 3.484375 2.46875 5.621094 2.46875h5.054687c.007813 0 .019531.003906.027344.003906h29.59375c4.210937 0 7.625-3.417969 7.625-7.628906 0-4.214844-3.414063-7.628906-7.625-7.628906h-1.71875l1.585937-5.351563c15.753906-53.265625 21.691406-108.363281 17.644532-163.765625l-1.132813-15.511719c-.015625-13.261719-.960937-27.480469-2.8125-42.265625-.523437-4.179687-4.332031-7.140625-8.519531-6.621094-4.179688.523438-7.140625 4.339844-6.617188 8.519532 1.328125 10.589844 2.164063 20.855468 2.511719 30.648437-16.203125-3.597656-50.882813-8.21875-102.273437.808594 1.046874-32.210937 7.300781-64.109375 13.472656-88.40625 4.710937-1.800781 9.398437-3.785156 14.003906-5.9375 3.816406-1.78125 5.464844-6.320313 3.679688-10.140625-1.78125-3.816406-6.324219-5.464844-10.140626-3.679688-.375.175782-.757812.347657-1.136718.519532 6.34375-10.9375 18.191406-18.039063 31.265625-18.039063 7.976562 0 15.542969 2.546875 21.875 7.359375 6.339843 4.832032 10.816406 11.4375 12.941406 19.105469 3.570313 12.894531 6.625 25.847656 9.089844 38.5.804687 4.136719 4.8125 6.835937 8.945312 6.03125 4.136719-.808594 6.835938-4.8125 6.03125-8.945313-.996093-5.101562-2.109375-10.257812-3.285156-15.429687 5.355469.519531 10.847656.757813 16.339844.757813 16.347656 0 32.707031-1.996094 45.503906-4.128907 7.351563-1.222656 13.804687-5.570312 17.703125-11.929687 3.90625-6.375 4.855469-14.121094 2.605469-21.253906zm-177.292969-120.4375c0-13.859376 5.394531-26.890626 15.1875-36.695313 9.847656-9.84375 22.90625-15.25 36.867188-15.195313 26.054687.082032 47.667968 19.855469 51.203124 45.390626-35.492187 3.761718-65.28125-16.597657-65.585937-16.808594-1.949219-1.367188-4.425781-1.746094-6.695313-1.019532-2.269531.722657-4.070312 2.464844-4.867187 4.707032-3.460937 9.714844-7.886719 16.585937-13.152344 20.425781-3.609375 2.632813-8.5625 2.871094-12.957031.628906zm-.003906 41.832031c.011718-.5625-.042969-1.136719-.160156-1.707031-.800782-3.828126-4.371094-6.433594-8.253907-6.027344-.503906.050781-.996093.152344-1.464843.296875-3.78125.804687-7.65625-.519531-10.191407-3.511719-3.246093-3.832031-3.246093-9.617188 0-13.453125 2.585938-3.054687 6.574219-4.367187 10.460938-3.441406.085937.023437.171875.042969.257812.0625.746094.195312 1.46875.476562 2.15625.832031 9.609375 5.023438 20.777344 4.351562 29.148438-1.753906 5.917969-4.316406 10.941406-10.722656 14.992187-19.105469 12.3125 6.6875 37.476563 17.582031 66.820313 14.765625l-.003907 33.769531c0 13.855469-5.394531 26.890625-15.1875 36.691407-9.804687 9.804687-22.828124 15.199218-36.691406 15.199218-.058594 0-.117187 0-.175781 0-28.460937-.09375-51.628906-23.683594-51.707031-52.617187zm0 0"/></svg>